 http://www.imdb.com/title/tt1122836/
 
http://www.alientrespass.com/

User Rating:6.8/10 - 340 votes

Comedy,Horror,Sci-Fi,Thriller

Director:R.W. Goodwin

Cast:Robert Patrick/Eric McCormack/Jenni Baird/Jody Thompson, and others.

Plot:
After crash landing near a desert town, an alien enlists the help of a local waitress to re-capture a monster that escaped from the wreckage of his space ship.....

Info:

General
Complete name                    : Alien Trespass-AC3-5,1-DVDRip[Eng]2009.avi
Format                           : AVI
Format/Info                      : Audio Video Interleave
File size                        : 1.36 GiB
Duration                         : 1h 24mn
Overall bit rate                 : 2 307 Kbps
Writing application              : VirtualDubMod 1.5.4.1 (build 2178/release)
Writing library                  : VirtualDubMod build 2178/release

Video
Format                           : MPEG-4 Visual
Format profile                   : Simple@L3
Format settings, BVOP            : No
Format settings, QPel            : No
Format settings, GMC             : No warppoints
Format settings, Matrix          : Default
Codec ID                         : XVID
Codec ID/Hint                    : XviD
Duration                         : 1h 24mn
Bit rate                         : 1 850 Kbps
Width                            : 656 pixels
Height                           : 352 pixels
Display aspect ratio             : 1.864
Frame rate                       : 23.976 fps
Resolution                       : 24 bits
Colorimetry                      : 4:2:0
Scan type                        : Progressive
Bits/(Pixel*Frame)               : 0.334
Stream size                      : 1.09 GiB (80%)
Writing library                  : XviD 1.1.2 (UTC 2006-11-01)

Audio
Format                           : AC-3
Format/Info                      : Audio Coding 3
Codec ID                         : 2000
Duration                         : 1h 24mn
Bit rate mode                    : Constant
Bit rate                         : 448 Kbps
Channel(s)                       : 6 channels
Channel positions                : Front: L C R, Surround: L R, LFE
Sampling rate                    : 48.0 KHz
Stream size                      : 271 MiB (19%)
Alignment                        : Split accross interleaves
Interleave, duration             : 42 ms (1.00 video frame)
Interleave, preload duration     : 500 ms

Enjoy....